# Blender v2.93.4 OBJ File: 'Room.blend'
# www.blender.org
mtllib Room.mtl
o Cube
v 2.500000 -2.500000 -2.500000
v 2.500000 -2.500000 2.500000
v -2.500000 -2.500000 2.500000
v -2.499999 -2.500000 -2.500001
v 2.500001 2.500000 -2.499999
v 2.499998 2.500000 2.500001
v -2.500001 2.500000 2.499999
v -2.500000 2.500000 -2.500000
vt 0.333333 0.333333
vt 0.333333 0.666667
vt 0.000000 0.666667
vt 0.000000 0.333333
vt 1.000000 0.000000
vt 1.000000 0.333333
vt 0.666667 0.333333
vt 0.666667 0.000000
vt 0.000000 0.000000
vt 0.333333 0.000000
vt 0.666667 0.000000
vt 0.666667 0.333333
vt 0.333333 0.333333
vt 0.333333 0.000000
vt 1.000000 0.333333
vt 1.000000 0.666667
vt 0.666667 0.666667
vt 0.000000 1.000000
vt 0.000000 0.666667
vt 0.333333 1.000000
vn 0.0000 1.0000 -0.0000
vn 0.0000 -1.0000 -0.0000
vn -1.0000 -0.0000 -0.0000
vn 0.0000 0.0000 -1.0000
vn 1.0000 0.0000 0.0000
vn -0.0000 -0.0000 1.0000
usemtl Material
s off
f 1/1/1 4/2/1 3/3/1 2/4/1
f 5/5/2 6/6/2 7/7/2 8/8/2
f 1/1/3 2/4/3 6/9/3 5/10/3
f 2/11/4 3/12/4 7/13/4 6/14/4
f 3/15/5 4/16/5 8/17/5 7/7/5
f 5/18/6 8/19/6 4/2/6 1/20/6
